<svg fill="none" height="24" viewBox="0 0 24 24" width="24" xmlns="http://www.w3.org/2000/svg"><g stroke="#141b34" stroke-width="1.5"><path d="m19 17v-6c0-2.82843 0-4.24264-.8787-5.12132s-2.2929-.87868-5.1213-.87868h-3m0 0c0-.70023 1.9943-2.00847 2.5-2.5m-2.5 2.5c0 .70023 1.9943 2.00847 2.5 2.5" stroke-linecap="round" stroke-linejoin="round"/><path d="m5 7.5v6c0 2.8284 0 4.2426.87868 5.1213s2.29289.8787 5.12132.8787h3m0 0c0 .7002-1.9943 2.0085-2.5 2.5m2.5-2.5c0-.7002-1.9943-2.0085-2.5-2.5" stroke-linecap="round" stroke-linejoin="round"/><circle cx="19" cy="19" r="2"/><circle cx="5" cy="5" r="2"/></g></svg>