<svg viewBox="0 0 256 256" xmlns="http://www.w3.org/2000/svg"><path d="m188.00293 108a32.03667 32.03667 0 0 0 -32 32h-25.52051a43.88 43.88 0 0 1 -33.80176-15.832l-20.93457-25.12131a32.01583 32.01583 0 1 0 -11.74609.6944v56.51782a32 32 0 1 0 8 0v-49.21106l18.53418 22.24121a51.86011 51.86011 0 0 0 39.94824 18.71094h26.5332a32.0015 32.0015 0 1 0 30.98731-40zm-144.00293-40a24 24 0 1 1 24 24 24.0275 24.0275 0 0 1 -24-24zm48 120a24 24 0 1 1 -24-24 24.0275 24.0275 0 0 1 24 24zm96.00293-24a24 24 0 1 1 24-24 24.0275 24.0275 0 0 1 -24 24z"/></svg>